mastitorrents.com
 
http://mastitorrents.com/forums/index.php

Mediainfo:
Video
Format : xvid
Duration : 56mn 21s
Bit rate : 453 Kbps
Width : 640 pixels
Height : 360 pixels
Display aspect ratio : 16:9
Frame rate : 29.970 fps
Bits/(Pixel*Frame) : 0.066
Stream size : 183 MiB (76%)
Audio
Codec ID/Hint : MP3
Bit rate mode : Constant
Bit rate : 128 Kbps
Channel(s) : 2 channels
Sampling rate : 44.1 KHz
Stream size : 51.6 MiB (22%)
Alignment : Aligned on interleaves
A person, who has worked for government for many years, describes in this interview how Corporates are
- looting America
- Using America's military to force the rest of world to use US $ as reserve currency, even though US $ is falling in value.
- Using America's military power to control oil.

The video is also available on youtube in multiple parts. Here the whole interview is present together.